# xmcd CD database file
#
# Track frame offsets:
#	150
#	24225
#	45209
#	49168
#	66949
#	88958
#	106672
#	121810
#	125837
#	155562
#	179014
#	203321
#
# Disc length: 2980 seconds
#
# Revision: 1
# Processed by: cddbd v1.5.2PL0 Copyright (c) Steve Scherf et al.
# Submitted via: CDex 1.70beta2
#
DISCID=9a0ba20c
DTITLE=Karma Shenjing - 流転輪廻
DYEAR=2006
DGENRE=Visual kei
TTITLE0=四季樂踊
TTITLE1=三國劍舞
TTITLE2=彗-hui-
TTITLE3=麗蛾
TTITLE4=戀沙雪
TTITLE5=天空渺茫
TTITLE6=地獄變相圖
TTITLE7=劫-jie-
TTITLE8=輪廻
TTITLE9=光蒼彩々
TTITLE10=夢浮月
TTITLE11=天狼星
EXTD=YEAR: 2006
EXTT0=
EXTT1=
EXTT2=
EXTT3=
EXTT4=
EXTT5=
EXTT6=
EXTT7=
EXTT8=
EXTT9=
EXTT10=
EXTT11=
PLAYORDER=
